# xmcd CD database file
#
# Track frame offsets:
#	151
#	12586
#	28231
#	43122
#	58916
#	71843
#	88338
#	104655
#	116745
#	131233
#	148765
#	166368
#	178274
#	192757
#
# Disc length: 2812 seconds
#
# Revision: 0
# Processed by: cddbd v1.5.1PL0 Copyright (c) Steve Scherf et al.
# Submitted via: CDex 1.51
#
DISCID=e30afa0e
DTITLE=TOM HEALY - IRELAND MY HOMELAND
DYEAR=1900
DGENRE=Country
TTITLE0=CLOCK ON THE WALL
TTITLE1=SOMEONE FROM HOME
TTITLE2=IRELAND MY HOMELAND
TTITLE3=SQUEEZE BOX IN MULLIGAR TOWN
TTITLE4=COTTAGE BY THE SEA
TTITLE5=LAY DOWN BESIDE ME
TTITLE6=HOMESTEAR IN MAYO
TTITLE7=MARY CLAIRE MULVINA REBECCA JANE
TTITLE8=BANKS OF THE RIVER SHANNON
TTITLE9=HIGH PRICE TO PAY
TTITLE10=INN AT INNISFREE
TTITLE11=MOTHERS CHAIR
TTITLE12=REMEMBER ME
TTITLE13=GOOD TO SEE YOU
EXTD=
EXTT0=
EXTT1=
EXTT2=
EXTT3=
EXTT4=
EXTT5=
EXTT6=
EXTT7=
EXTT8=
EXTT9=
EXTT10=
EXTT11=
EXTT12=
EXTT13=
PLAYORDER=
